<svg xmlns="http://www.w3.org/2000/svg" width="256" height="366" preserveAspectRatio="xMidYMid" xmlns:v="https://vecta.io/nano"><path d="M182.022 9.147c2.982 3.702 4.502 8.697 7.543 18.687L256 246.073c-24.563-12.742-51.265-21.932-79.426-26.891L133.318 73.008a5.63 5.63 0 0 0-10.803.017L79.784 219.109C51.492 224.045 24.668 233.252 0 246.04L66.761 27.783c3.05-9.973 4.576-14.959 7.558-18.654a24.54 24.54 0 0 1 9.946-7.359C88.67 0 93.885 0 104.314 0h47.684c10.443 0 15.664 0 20.074 1.774 3.893 1.567 7.319 4.105 9.951 7.373z"/><path d="M189.972 256.459c-10.952 9.365-32.812 15.752-57.991 15.752-30.905 0-56.807-9.621-63.681-22.561-2.457 7.416-3.008 15.903-3.008 21.325 0 0-1.619 26.623 16.898 45.14 0-9.615 7.795-17.409 17.409-17.409 16.48 0 16.461 14.378 16.446 26.043l-.001 1.041c0 17.705 10.821 32.882 26.21 39.28-2.299-4.728-3.588-10.036-3.588-15.647 0-16.886 9.914-23.173 21.435-30.481 9.167-5.814 19.353-12.274 26.372-25.232 3.662-6.761 5.742-14.505 5.742-22.734a47.77 47.77 0 0 0-2.244-14.516z" fill="#ff5d01"/></svg>