<svg xmlns="http://www.w3.org/2000/svg" width="256" height="204" preserveAspectRatio="xMidYMid" xmlns:v="https://vecta.io/nano"><path d="M53.172 0C38.565 0 27.756 12.785 28.24 26.65c.464 13.321-.139 30.572-4.482 44.642C19.402 85.402 12.034 94.34 0 95.488v12.956c12.034 1.148 19.402 10.086 23.758 24.196 4.343 14.069 4.946 31.321 4.482 44.642-.484 13.863 10.325 26.65 24.934 26.65h149.673c14.607 0 25.413-12.785 24.93-26.65-.464-13.321.139-30.572 4.482-44.642 4.359-14.11 11.707-23.049 23.741-24.196V95.488c-12.034-1.148-19.382-10.086-23.741-24.196-4.343-14.067-4.946-31.321-4.482-44.642C228.261 12.787 217.455 0 202.847 0H53.17h.002zm120.387 125.533c0 19.092-14.241 30.67-37.873 30.67H95.458a4.34 4.34 0 0 1-4.339-4.339V52.068a4.34 4.34 0 0 1 4.339-4.339h39.999c19.705 0 32.638 10.674 32.638 27.062 0 11.503-8.7 21.801-19.784 23.604v.601c15.089 1.655 25.249 12.104 25.249 26.537zm-42.26-64.05h-22.938v32.399h19.319c14.935 0 23.17-6.014 23.17-16.764 0-10.073-7.081-15.636-19.551-15.636h0zm-22.938 45.256v35.705h23.782c15.549 0 23.786-6.239 23.786-17.966s-8.468-17.742-24.786-17.742h-22.782v.002z" fill="#7e13f8"/></svg>