<svg xmlns="http://www.w3.org/2000/svg" width="256" height="361" preserveAspectRatio="xMidYMid" xmlns:v="https://vecta.io/nano"><path d="M127.844 360.088L23.662 331.166.445 70.766h255.11l-23.241 260.36-104.47 28.962h0z" fill="#264de4"/><path d="M212.417 314.547l19.861-222.489H128V337.95l84.417-23.404h0z" fill="#2965f1"/><path d="M53.669 188.636l2.862 31.937H128v-31.937H53.669h0zm-5.752-64.641l2.903 31.937H128v-31.937H47.917h0zM128 271.58l-.14.037-35.569-9.604-2.274-25.471h-32.06l4.474 50.146 65.421 18.161.147-.041V271.58h0z" fill="#ebebeb"/><path d="M60.484 0h38.681v16.176H76.659v16.176h22.505v16.176h-38.68V0h0zm46.417 0h38.681v14.066h-22.505v2.813h22.505v32.352h-38.681V34.462h22.505v-2.813h-22.505V0h0zm46.418 0H192v14.066h-22.505v2.813H192v32.352h-38.681V34.462h22.505v-2.813h-22.505V0h0z"/><path d="M202.127 188.636l5.766-64.641H127.89v31.937h45.003l-2.906 32.704H127.89v31.937h39.327l-3.707 41.42-35.62 9.614v33.227l65.473-18.146.48-5.396 7.505-84.08.779-8.576h0z" fill="#fff"/></svg>