<svg xmlns="http://www.w3.org/2000/svg" width="256" height="361" preserveAspectRatio="xMidYMid" xmlns:v="https://vecta.io/nano"><path d="M255.555 70.766l-23.241 260.36-104.47 28.962-104.182-28.922L.445 70.766h255.11 0z" fill="#e44d26"/><path d="M128 337.95l84.417-23.404 19.861-222.489H128V337.95h0z" fill="#f16529"/><path d="M82.82 155.932H128v-31.937H47.917l.764 8.568 7.849 88.01H128v-31.937H85.739l-2.919-32.704h0zm7.198 80.61h-32.06l4.474 50.146 65.421 18.161.147-.041V271.58l-.14.037-35.569-9.604-2.274-25.471h0z" fill="#ebebeb"/><path d="M24.181 0h16.23v16.035h14.847V0h16.231v48.558h-16.23v-16.26H40.411v16.26h-16.23V0h-.001 0zm68.65 16.103H78.543V0h44.814v16.103h-14.295v32.456h-16.23V16.103h-.001 0zM130.469 0h16.923l10.41 17.062L168.203 0h16.93v48.558H168.97V24.49l-11.166 17.265h-.279L146.35 24.49v24.068h-15.88V0h0zm62.741 0h16.235v32.508h22.824v16.051H193.21V0h0z"/><path d="M127.89 220.573h39.327l-3.707 41.42-35.62 9.614v33.227l65.473-18.146.48-5.396 7.505-84.08.779-8.576H127.89v31.937h0zm0-64.719v.078h77.143l.641-7.179 1.455-16.191.764-8.568H127.89v31.859h0z" fill="#fff"/></svg>